<svg width="99" height="99" viewBox="0 0 99 99" fill="none" xmlns="http://www.w3.org/2000/svg">
    <circle cx="49.5" cy="49.5" r="49" fill="#FF741E" stroke="#FF741E"/>
    <path d="M37.875 43.125V29.5596C37.875 27.9763 37.875 27.1847 38.3341 26.6298C38.7932 26.075 39.5708 25.9268 41.1261 25.6304L68.5428 20.4051C70.742 19.9859 71.8416 19.7764 72.5667 20.3763C73.2917 20.9761 73.2917 22.0956 73.2917 24.3344V36.375V53.25V63.4404C73.2917 65.0237 73.2917 65.8153 72.8326 66.3702C72.3735 66.925 71.5959 67.0732 70.0406 67.3696L60.3322 69.2199C58.133 69.6391 57.0334 69.8486 56.3084 69.2487C55.5834 68.6488 55.5834 67.5294 55.5834 65.2906V57.25C55.5834 55.3644 55.5834 54.4216 56.1691 53.8358C56.7549 53.25 57.6977 53.25 59.5834 53.25H73.2917V36.375L37.875 43.125V60V70.1904C37.875 71.7737 37.875 72.5653 37.4159 73.1202C36.9569 73.675 36.1792 73.8232 34.6239 74.1196L24.9156 75.9699C22.7163 76.3891 21.6167 76.5986 20.8917 75.9987C20.1667 75.3988 20.1667 74.2794 20.1667 72.0406V64C20.1667 62.1144 20.1667 61.1716 20.7525 60.5858C21.3383 60 22.2811 60 24.1667 60H37.875V43.125Z" fill="#F3EFEE"/>
</svg>
